<mxfile host="app.diagrams.net" modified="2023-12-06T22:13:32.495Z" agent="Mozilla/5.0 (Windows NT 10.0; Win64; x64) AppleWebKit/537.36 (KHTML, like Gecko) Chrome/119.0.0.0 Safari/537.36" etag="c8RyH-qjlNNhcn46jg1l" version="22.1.5" type="github">
  <diagram name="Page-1" id="CdFyWuu7mZfADsBGeCwA">
    <mxGraphModel dx="1368" dy="823" grid="1" gridSize="10" guides="1" tooltips="1" connect="1" arrows="1" fold="1" page="1" pageScale="1" pageWidth="850" pageHeight="1100" math="0" shadow="0">
      <root>
        <mxCell id="0" />
        <mxCell id="1" parent="0" />
        <mxCell id="9oPIyIbZ-EvlBXnKMK6W-6" value="" style="image;points=[];aspect=fixed;html=1;align=center;shadow=0;dashed=0;image=img/lib/allied_telesis/computer_and_terminals/Personal_Computer_with_Server.svg;" parent="1" vertex="1">
          <mxGeometry x="528.8" y="320" width="62.400000000000006" height="62.400000000000006" as="geometry" />
        </mxCell>
        <mxCell id="9oPIyIbZ-EvlBXnKMK6W-9" value="" style="shape=flexArrow;endArrow=classic;startArrow=classic;html=1;rounded=0;entryX=0.5;entryY=1;entryDx=0;entryDy=0;entryPerimeter=0;" parent="1" source="9oPIyIbZ-EvlBXnKMK6W-6" target="mhXbEhYM_pufSV945Tpj-3" edge="1">
          <mxGeometry width="100" height="100" relative="1" as="geometry">
            <mxPoint x="210" y="470" as="sourcePoint" />
            <mxPoint x="560" y="270" as="targetPoint" />
          </mxGeometry>
        </mxCell>
        <mxCell id="9oPIyIbZ-EvlBXnKMK6W-13" style="edgeStyle=orthogonalEdgeStyle;rounded=0;orthogonalLoop=1;jettySize=auto;html=1;" parent="1" source="9oPIyIbZ-EvlBXnKMK6W-12" target="mhXbEhYM_pufSV945Tpj-3" edge="1">
          <mxGeometry relative="1" as="geometry">
            <mxPoint x="560" y="190" as="targetPoint" />
          </mxGeometry>
        </mxCell>
        <mxCell id="9oPIyIbZ-EvlBXnKMK6W-12" value="pfsense-2.7.1&lt;br&gt;(em0) WAN: 10.0.2.15&lt;br&gt;(em1) LAN: 192.168.1.1&lt;br&gt;Built-in Firewall" style="text;html=1;strokeColor=none;fillColor=none;align=center;verticalAlign=middle;whiteSpace=wrap;rounded=0;" parent="1" vertex="1">
          <mxGeometry x="610" y="181" width="151.2" height="100" as="geometry" />
        </mxCell>
        <mxCell id="9oPIyIbZ-EvlBXnKMK6W-22" style="edgeStyle=orthogonalEdgeStyle;rounded=0;orthogonalLoop=1;jettySize=auto;html=1;" parent="1" source="9oPIyIbZ-EvlBXnKMK6W-19" target="9oPIyIbZ-EvlBXnKMK6W-6" edge="1">
          <mxGeometry relative="1" as="geometry" />
        </mxCell>
        <mxCell id="9oPIyIbZ-EvlBXnKMK6W-19" value="Hostname: kali&lt;br&gt;OS: kali&lt;br&gt;(enp0s3) LAN: 192.168.1.11&lt;br&gt;Gateway: 192.168.1.1" style="text;html=1;strokeColor=none;fillColor=none;align=center;verticalAlign=middle;whiteSpace=wrap;rounded=0;" parent="1" vertex="1">
          <mxGeometry x="599" y="301.2" width="213.8" height="100" as="geometry" />
        </mxCell>
        <mxCell id="mhXbEhYM_pufSV945Tpj-1" value="" style="shape=flexArrow;endArrow=classic;startArrow=classic;html=1;rounded=0;entryX=0;entryY=0.5;entryDx=0;entryDy=0;entryPerimeter=0;" edge="1" parent="1" source="mhXbEhYM_pufSV945Tpj-6" target="mhXbEhYM_pufSV945Tpj-3">
          <mxGeometry width="100" height="100" relative="1" as="geometry">
            <mxPoint x="235" y="231" as="sourcePoint" />
            <mxPoint x="485.4" y="379.6354961832062" as="targetPoint" />
          </mxGeometry>
        </mxCell>
        <mxCell id="mhXbEhYM_pufSV945Tpj-3" value="" style="shape=mxgraph.cisco.security.router_firewall;html=1;pointerEvents=1;dashed=0;fillColor=#036897;strokeColor=#ffffff;strokeWidth=2;verticalLabelPosition=bottom;verticalAlign=top;align=center;outlineConnect=0;" vertex="1" parent="1">
          <mxGeometry x="521" y="200" width="78" height="62" as="geometry" />
        </mxCell>
        <mxCell id="mhXbEhYM_pufSV945Tpj-6" value="" style="image;aspect=fixed;perimeter=ellipsePerimeter;html=1;align=center;shadow=0;dashed=0;spacingTop=3;image=img/lib/active_directory/internet_cloud.svg;" vertex="1" parent="1">
          <mxGeometry x="370" y="200" width="91.27" height="57.5" as="geometry" />
        </mxCell>
        <mxCell id="mhXbEhYM_pufSV945Tpj-8" style="edgeStyle=orthogonalEdgeStyle;rounded=0;orthogonalLoop=1;jettySize=auto;html=1;entryX=0.5;entryY=0;entryDx=0;entryDy=0;" edge="1" parent="1" source="mhXbEhYM_pufSV945Tpj-7" target="mhXbEhYM_pufSV945Tpj-6">
          <mxGeometry relative="1" as="geometry" />
        </mxCell>
        <mxCell id="mhXbEhYM_pufSV945Tpj-7" value="The Internet" style="text;html=1;align=center;verticalAlign=middle;resizable=0;points=[];autosize=1;strokeColor=none;fillColor=none;" vertex="1" parent="1">
          <mxGeometry x="370" y="140" width="90" height="30" as="geometry" />
        </mxCell>
      </root>
    </mxGraphModel>
  </diagram>
</mxfile>
